<svg version="1.2" xmlns="http://www.w3.org/2000/svg" viewBox="0 0 512 512" width="512" height="512">
	<title>Logo</title>
	<style>
		.s0 { fill: #ffffff } 
	</style>
	<g id="White">
		<path id="S" class="s0" d="m266.8 34.7c-31.5 0-37.4 25.1-37.4 35.1 0 63.1 132.4 67.7 132 185.5-0.1 40.5-54.7 74.2-59 74.2-4.4 0-47.8-27.9-47.8-27.9 0.2 0.1-15.6 9.2-15.6 9.2 0 0-9.6-8.9-15.8-25.9 17.6-5.5 31.4-31.3 31.4-31.3 0 0 25.3 31.3 44.9 31.3 4.1 0 10.3-14.5 10.3-27.9 0-95.6-111.1-101.7-111.1-186.7 0-38.6 34.1-63.4 65.7-63.4 60.1 0 59.5 64.6 44.7 75-0.1-15-10.7-47.2-42.3-47.2z"/>
		<path id="S Down" class="s0" d="m245.9 478.1c31.5 0 37.4-24.5 37.4-34.2 0-61.6-132.5-80.4-132.1-194.3 0-58.3 55.7-90 82.1-90 7.4 5.1 20.1 15.8 20.1 15.8 0 0-50.6 17.5-50.6 72.5 0 92.5 112.6 113.2 109.7 196.1-1.3 37.7-32.9 61.3-64.2 61.3-60-0.1-59.3-63.1-44.6-73.3 0.1 14.7 10.7 46.1 42.2 46.1z"/>
	</g>
</svg>